<svg width="137" height="38" viewBox="0 0 137 38" fill="none" xmlns="http://www.w3.org/2000/svg">
<path d="M0.586648 37.5V1.13636H7.17401V31.978H23.1896V37.5H0.586648ZM59.9838 19.3182C59.9838 23.2363 59.2499 26.5921 57.7821 29.3857C56.3262 32.1674 54.3375 34.2981 51.8162 35.7777C49.3068 37.2573 46.4599 37.9972 43.2757 37.9972C40.0916 37.9972 37.2388 37.2573 34.7175 35.7777C32.208 34.2862 30.2194 32.1496 28.7516 29.3679C27.2956 26.5743 26.5676 23.2244 26.5676 19.3182C26.5676 15.4001 27.2956 12.0502 28.7516 9.26847C30.2194 6.47491 32.208 4.3383 34.7175 2.85866C37.2388 1.37902 40.0916 0.639203 43.2757 0.639203C46.4599 0.639203 49.3068 1.37902 51.8162 2.85866C54.3375 4.3383 56.3262 6.47491 57.7821 9.26847C59.2499 12.0502 59.9838 15.4001 59.9838 19.3182ZM53.361 19.3182C53.361 16.5601 52.9289 14.2341 52.0648 12.3402C51.2125 10.4344 50.0288 8.99621 48.5137 8.02557C46.9985 7.04309 45.2525 6.55185 43.2757 6.55185C41.2989 6.55185 39.553 7.04309 38.0378 8.02557C36.5227 8.99621 35.333 10.4344 34.4689 12.3402C33.6167 14.2341 33.1905 16.5601 33.1905 19.3182C33.1905 22.0762 33.6167 24.4081 34.4689 26.3139C35.333 28.2079 36.5227 29.6461 38.0378 30.6286C39.553 31.5992 41.2989 32.0845 43.2757 32.0845C45.2525 32.0845 46.9985 31.5992 48.5137 30.6286C50.0288 29.6461 51.2125 28.2079 52.0648 26.3139C52.9289 24.4081 53.361 22.0762 53.361 19.3182ZM90.5724 12.7486C90.2765 11.7898 89.8681 10.9316 89.3473 10.174C88.8383 9.40459 88.2228 8.74763 87.5007 8.20312C86.7905 7.65862 85.9737 7.25024 85.0504 6.97798C84.1271 6.69389 83.121 6.55185 82.032 6.55185C80.0788 6.55185 78.3388 7.04309 76.8118 8.02557C75.2848 9.00805 74.0833 10.4522 73.2074 12.358C72.3433 14.2519 71.9112 16.5601 71.9112 19.2827C71.9112 22.0289 72.3433 24.3549 73.2074 26.2607C74.0715 28.1664 75.273 29.6165 76.8118 30.6108C78.3506 31.5933 80.138 32.0845 82.174 32.0845C84.0206 32.0845 85.6186 31.7294 86.968 31.0192C88.3293 30.3089 89.3769 29.3028 90.1108 28.0007C90.8447 26.6868 91.2116 25.148 91.2116 23.3842L92.7031 23.6151H82.831V18.4659H97.5859V22.8338C97.5859 25.947 96.9231 28.6399 95.5973 30.9126C94.2715 33.1854 92.4486 34.9373 90.1286 36.1683C87.8085 37.3875 85.1451 37.9972 82.1385 37.9972C78.7886 37.9972 75.8471 37.2455 73.3139 35.7422C70.7926 34.227 68.8217 32.0786 67.4013 29.2969C65.9927 26.5033 65.2884 23.1889 65.2884 19.3537C65.2884 16.4181 65.7027 13.7962 66.5312 11.4879C67.3717 9.17969 68.5436 7.22064 70.0469 5.61079C71.5502 3.98911 73.3139 2.75805 75.3381 1.91761C77.3622 1.06534 79.5639 0.639203 81.9432 0.639203C83.9555 0.639203 85.8317 0.935131 87.5717 1.52699C89.3118 2.10701 90.8565 2.93561 92.206 4.01278C93.5672 5.08996 94.6858 6.36837 95.5618 7.84801C96.4377 9.32765 97.0118 10.9612 97.2841 12.7486H90.5724ZM136.449 19.3182C136.449 23.2363 135.715 26.5921 134.247 29.3857C132.791 32.1674 130.802 34.2981 128.281 35.7777C125.772 37.2573 122.925 37.9972 119.741 37.9972C116.556 37.9972 113.704 37.2573 111.182 35.7777C108.673 34.2862 106.684 32.1496 105.216 29.3679C103.76 26.5743 103.032 23.2244 103.032 19.3182C103.032 15.4001 103.76 12.0502 105.216 9.26847C106.684 6.47491 108.673 4.3383 111.182 2.85866C113.704 1.37902 116.556 0.639203 119.741 0.639203C122.925 0.639203 125.772 1.37902 128.281 2.85866C130.802 4.3383 132.791 6.47491 134.247 9.26847C135.715 12.0502 136.449 15.4001 136.449 19.3182ZM129.826 19.3182C129.826 16.5601 129.394 14.2341 128.53 12.3402C127.677 10.4344 126.494 8.99621 124.979 8.02557C123.463 7.04309 121.717 6.55185 119.741 6.55185C117.764 6.55185 116.018 7.04309 114.503 8.02557C112.988 8.99621 111.798 10.4344 110.934 12.3402C110.081 14.2341 109.655 16.5601 109.655 19.3182C109.655 22.0762 110.081 24.4081 110.934 26.3139C111.798 28.2079 112.988 29.6461 114.503 30.6286C116.018 31.5992 117.764 32.0845 119.741 32.0845C121.717 32.0845 123.463 31.5992 124.979 30.6286C126.494 29.6461 127.677 28.2079 128.53 26.3139C129.394 24.4081 129.826 22.0762 129.826 19.3182Z" fill="white"/>
</svg>
