<svg width="121" height="25" viewBox="0 0 121 25" fill="none" xmlns="http://www.w3.org/2000/svg">
<g clip-path="url(#clip0_61_102)">
<path d="M12.5 18.2121L16.65 20.7221C17.41 21.1821 18.34 20.5021 18.14 19.6421L17.04 14.9221L20.71 11.7421C21.38 11.1621 21.0199 10.0621 20.1399 9.99215L15.31 9.58215L13.42 5.12215C13.08 4.31215 11.92 4.31215 11.58 5.12215L9.68995 9.57215L4.85995 9.98215C3.97995 10.0521 3.61995 11.1521 4.28995 11.7321L7.95995 14.9121L6.85995 19.6321C6.65995 20.4921 7.58995 21.1721 8.34995 20.7121L12.5 18.2121V18.2121Z" fill="#0BB4AA"/>
<path d="M84.5 18.2121L88.65 20.7221C89.41 21.1821 90.34 20.5021 90.14 19.6421L89.04 14.9221L92.71 11.7421C93.38 11.1621 93.0199 10.0621 92.1399 9.99215L87.31 9.58215L85.42 5.12215C85.08 4.31215 83.92 4.31215 83.58 5.12215L81.69 9.57215L76.86 9.98215C75.98 10.0521 75.62 11.1521 76.29 11.7321L79.96 14.9121L78.86 19.6321C78.66 20.4921 79.59 21.1721 80.35 20.7121L84.5 18.2121V18.2121Z" fill="#0BB4AA"/>
<path d="M60.5 18.2121L64.65 20.7221C65.41 21.1821 66.34 20.5021 66.14 19.6421L65.04 14.9221L68.71 11.7421C69.38 11.1621 69.0199 10.0621 68.1399 9.99215L63.31 9.58215L61.42 5.12215C61.08 4.31215 59.92 4.31215 59.58 5.12215L57.69 9.57215L52.86 9.98215C51.98 10.0521 51.62 11.1521 52.29 11.7321L55.96 14.9121L54.86 19.6321C54.66 20.4921 55.59 21.1721 56.35 20.7121L60.5 18.2121V18.2121Z" fill="#0BB4AA"/>
<path d="M36.5 18.2121L40.65 20.7221C41.41 21.1821 42.34 20.5021 42.14 19.6421L41.04 14.9221L44.71 11.7421C45.38 11.1621 45.0199 10.0621 44.1399 9.99215L39.31 9.58215L37.42 5.12215C37.08 4.31215 35.92 4.31215 35.58 5.12215L33.69 9.57215L28.86 9.98215C27.98 10.0521 27.62 11.1521 28.29 11.7321L31.96 14.9121L30.86 19.6321C30.66 20.4921 31.59 21.1721 32.35 20.7121L36.5 18.2121V18.2121Z" fill="#0BB4AA"/>
<path d="M108.5 18.2121L112.65 20.7221C113.41 21.1821 114.34 20.5021 114.14 19.6421L113.04 14.9221L116.71 11.7421C117.38 11.1621 117.02 10.0621 116.14 9.99215L111.31 9.58215L109.42 5.12215C109.08 4.31215 107.92 4.31215 107.58 5.12215L105.69 9.57215L100.86 9.98215C99.98 10.0521 99.62 11.1521 100.29 11.7321L103.96 14.9121L102.86 19.6321C102.66 20.4921 103.59 21.1721 104.35 20.7121L108.5 18.2121V18.2121Z" fill="#0BB4AA"/>
</g>
<defs>
<clipPath id="clip0_61_102">
<rect width="120" height="24" fill="white" transform="translate(0.5 0.692383)"/>
</clipPath>
</defs>
</svg>
